<svg
  xmlns="http://www.w3.org/2000/svg"
  viewBox="0 0 1440 200"
  preserveAspectRatio="none"
  class="absolute inset-0 w-full"
>
  <defs>
    <!-- Gradient Definitions -->
    <linearGradient id="footer-bg-gradient" x1="0" x2="0" y1="0" y2="1">
      <stop offset="0%" stop-color="#e6f7ff" />
      <stop offset="100%" stop-color="#d4e9f9" />
    </linearGradient>
    <linearGradient id="footer-wave-gradient" x1="0" x2="1" y1="0" y2="0">
      <stop offset="0%" stop-color="#63b3ed" />
      <stop offset="100%" stop-color="#3182ce" />
    </linearGradient>
  </defs>

  <!-- Background Fill -->
  <rect width="1440" height="200" fill="url(#footer-bg-gradient)" />

  <!-- Wave 1 -->
  <path
    d="M0,100 C360,150 720,50 1080,90 C1260,110 1440,150 1440,150 L1440,200 L0,200 Z"
    fill="url(#footer-wave-gradient)"
    opacity="0.6"
  />

  <!-- Wave 2 -->
  <path
    d="M0,180 C360,220 720,120 1080,160 C1260,180 1440,220 1440,220 L1440,200 L0,200 Z"
    fill="url(#footer-wave-gradient)"
    opacity="0.4"
  />

  <!-- Subtle Grid Dots -->
  <g fill="#cbd5e1" opacity="0.5">
    <circle cx="200" cy="50" r="3" />
    <circle cx="400" cy="150" r="3" />
    <circle cx="600" cy="80" r="3" />
    <circle cx="800" cy="130" r="3" />
    <circle cx="1000" cy="60" r="3" />
    <circle cx="1200" cy="110" r="3" />
  </g>
</svg>
