<svg
  xmlns="http://www.w3.org/2000/svg"
  viewBox="0 0 1440 800"
  preserveAspectRatio="none"
  class="absolute inset-0 w-full h-full"
>
  <defs>
    <!-- Gradient Definitions -->
    <linearGradient id="bg-gradient" x1="0" x2="0" y1="0" y2="1">
      <stop offset="0%" stop-color="#d4e9f9" />
      <stop offset="100%" stop-color="#e6f7ff" />
    </linearGradient>
    <linearGradient id="wave-gradient" x1="0" x2="1" y1="0" y2="0">
      <stop offset="0%" stop-color="#90cdf4" />
      <stop offset="100%" stop-color="#63b3ed" />
    </linearGradient>
  </defs>

  <!-- Background Fill -->
  <rect width="1440" height="800" fill="url(#bg-gradient)" />

  <!-- Wave 1 -->
  <path
    d="M0,160 C360,200 720,80 1080,120 C1260,140 1440,200 1440,200 L1440,0 L0,0 Z"
    fill="url(#wave-gradient)"
    opacity="0.6"
  />

  <!-- Wave 2 -->
  <path
    d="M0,320 C360,360 720,240 1080,280 C1260,300 1440,360 1440,360 L1440,0 L0,0 Z"
    fill="url(#wave-gradient)"
    opacity="0.4"
  />

  <!-- Grid Dots -->
  <g fill="#cbd5e1" opacity="0.5">
    <circle cx="200" cy="300" r="3" />
    <circle cx="400" cy="500" r="3" />
    <circle cx="600" cy="400" r="3" />
    <circle cx="800" cy="250" r="3" />
    <circle cx="1000" cy="450" r="3" />
    <circle cx="1200" cy="350" r="3" />
  </g>

</svg>
